<svg width="68.000000" height="40.000000" viewBox="0 0 68 40" fill="none" xmlns="http://www.w3.org/2000/svg" xmlns:xlink="http://www.w3.org/1999/xlink">
	<desc>
			Created with Pixso.
	</desc>
	<defs>
		<clipPath id="clip322_20">
			<rect id="Logo" width="68.000000" height="40.000000" fill="white" fill-opacity="0"/>
		</clipPath>
	</defs>
	<rect id="Logo" width="68.000000" height="40.000000" fill="#FFFFFF" fill-opacity="0"/>
	<g clip-path="url(#clip322_20)">
		<path id="Vector" d="M68 20C68 31.0456 58.9792 40 47.8518 40L47.5912 40L47.4306 40L47.2751 39.9962C47.1605 39.9962 47.0453 39.9887 46.9313 39.9837C46.8866 39.9837 46.8425 39.98 46.7979 39.9769L46.5579 39.9637L46.3835 39.9519L46.3237 39.9475C46.2715 39.9438 46.2192 39.94 46.1669 39.935C46.1147 39.93 46.0737 39.9275 46.0272 39.9231C45.9698 39.9181 45.9126 39.9131 45.8547 39.9069L45.7583 39.8975C45.6223 39.8838 45.4869 39.8687 45.3516 39.8513C45.3006 39.8456 45.249 39.8387 45.1973 39.8319C45.0714 39.8165 44.9478 39.7992 44.8265 39.78L44.6407 39.75C44.5778 39.7406 44.5148 39.7306 44.4568 39.72L44.2736 39.6881C44.1931 39.6744 44.1125 39.6594 44.0331 39.6437C43.9702 39.6331 43.9135 39.6212 43.8537 39.6094L43.7278 39.5831C43.6056 39.5581 43.4847 39.5319 43.3638 39.5044L43.1857 39.4631L43.0062 39.42C42.8866 39.3912 42.7676 39.3608 42.6492 39.3287L42.4723 39.2812L42.2953 39.2319C42.1776 39.1981 42.0599 39.1638 41.9434 39.1281L41.7923 39.0819L41.7192 39.0587L41.5757 39.0125C41.4536 38.9725 41.3314 38.9319 41.2105 38.8875L41.0367 38.825L41.0191 38.8188L40.8491 38.7563C40.6684 38.6938 40.4902 38.6219 40.3126 38.55L40.1357 38.4781L39.9594 38.4044C39.8419 38.3556 39.7252 38.305 39.6094 38.2525L39.4589 38.1875L39.4104 38.1656L39.292 38.1106C38.7883 37.8765 38.2957 37.6215 37.8143 37.3456L37.6638 37.2588C37.5826 37.2119 37.5013 37.1638 37.4214 37.115L37.2955 37.0369L37.2476 37.0081L37.1286 36.9337C36.9565 36.8271 36.7869 36.7175 36.6199 36.605L36.4669 36.5C36.3922 36.4496 36.3179 36.3983 36.244 36.3463C36.2397 36.3437 36.2357 36.3408 36.232 36.3375C36.1556 36.2842 36.0801 36.2304 36.0054 36.1762L35.9921 36.1669C35.9111 36.1081 35.8305 36.0488 35.7504 35.9887C35.7407 35.9824 35.7314 35.9755 35.7227 35.9681C35.6528 35.9163 35.5835 35.8637 35.5149 35.81C35.4985 35.7987 35.4834 35.7869 35.4683 35.7744C35.4009 35.7225 35.3336 35.67 35.2668 35.6162C35.2416 35.5969 35.2164 35.5762 35.1912 35.5537C35.1232 35.5 35.0552 35.4444 34.9879 35.3881C34.9728 35.3769 34.9583 35.365 34.9444 35.3525C34.8965 35.3133 34.8487 35.2733 34.8008 35.2325C34.7581 35.1969 34.7152 35.16 34.6749 35.1237C34.6031 35.0633 34.5324 35.0008 34.4628 34.9362C34.3878 34.8706 34.3141 34.8037 34.2405 34.7369C34.1668 34.67 34.0976 34.6063 34.027 34.5394C33.6778 34.2131 33.3406 33.874 33.0153 33.5219C32.9781 33.4825 32.9416 33.4425 32.9057 33.4025C32.8553 33.3481 32.8055 33.2931 32.7571 33.2375C32.7086 33.1819 32.6646 33.1338 32.6192 33.0812C32.5739 33.0287 32.514 32.96 32.4618 32.8987C32.3082 32.7192 32.1583 32.5369 32.0123 32.3519L31.8914 32.1975C31.7767 32.0512 31.6647 31.9029 31.5551 31.7525C31.4922 31.6663 31.4292 31.58 31.3662 31.4925C31.3617 31.4867 31.3575 31.4807 31.3536 31.4744C31.2928 31.3881 31.2324 31.3012 31.1723 31.2137C31.1173 31.1346 31.0636 31.0548 31.0111 30.9744C30.9897 30.9431 30.9683 30.9119 30.9482 30.8781C30.91 30.8206 30.8722 30.7625 30.8348 30.7037C30.8204 30.6819 30.8058 30.66 30.7927 30.6375C30.7385 30.5542 30.6852 30.4688 30.6327 30.3813C30.5748 30.2875 30.5181 30.1938 30.4621 30.0975C30.4061 30.0013 30.3506 29.91 30.2959 29.8112C30.2644 29.7556 30.2329 29.7006 30.202 29.6444L30.1347 29.5194C30.0963 29.4506 30.0591 29.3813 30.022 29.3119C30.0132 29.2956 30.0043 29.2787 29.9962 29.2619C29.9647 29.1994 29.9332 29.1425 29.9023 29.0825C29.8646 29.0088 29.8275 28.935 29.7903 28.8612C29.7531 28.7875 29.7172 28.7131 29.6813 28.6394C29.6091 28.4906 29.5388 28.3408 29.4704 28.19C29.402 28.0392 29.3354 27.8873 29.2708 27.7344C29.2387 27.6581 29.2079 27.5812 29.1751 27.5044C29.1424 27.4275 29.1122 27.3513 29.0826 27.2744C29.0524 27.1975 29.0196 27.1206 28.9932 27.0431C28.9667 26.9656 28.9346 26.8875 28.9056 26.8094C28.8217 26.5752 28.7405 26.3385 28.662 26.0994C28.6362 26.02 28.611 25.94 28.5864 25.86C28.5505 25.7444 28.5159 25.6275 28.4819 25.5106C28.4655 25.4525 28.4485 25.3937 28.4322 25.335C28.4158 25.2762 28.4 25.2181 28.3843 25.1594C28.352 25.0419 28.3214 24.9238 28.2924 24.805C28.2773 24.7458 28.2628 24.6865 28.249 24.6269L28.2074 24.45C28.1797 24.33 28.1533 24.21 28.1281 24.0887L28.1016 23.9637C28.0897 23.9044 28.0777 23.845 28.067 23.7856C28.0512 23.7069 28.0361 23.6269 28.0223 23.5469C28.0109 23.4865 28.0002 23.4258 27.9902 23.365C27.9794 23.3025 27.9694 23.24 27.96 23.1825C27.9505 23.125 27.9404 23.0575 27.931 22.9987C27.9121 22.8737 27.8951 22.7538 27.8787 22.6306C27.8718 22.5794 27.8649 22.5281 27.8592 22.4775C27.8416 22.3431 27.8265 22.2087 27.8126 22.0738C27.8088 22.0421 27.8057 22.0102 27.8032 21.9781C27.7969 21.9206 27.7918 21.8637 27.7868 21.8069C27.7824 21.7606 27.778 21.7144 27.7748 21.6681C27.7717 21.6219 27.766 21.5644 27.7623 21.5125C27.7623 21.4925 27.7591 21.4731 27.7578 21.4531C27.7534 21.3956 27.7496 21.3375 27.7458 21.28C27.7408 21.2004 27.7365 21.121 27.7327 21.0419C27.7295 20.9975 27.7276 20.9537 27.7257 20.9094C27.7207 20.7963 27.7162 20.6819 27.7131 20.5681L27.7094 20.4138C27.7094 20.3606 27.7094 20.3075 27.7094 20.2544C27.7094 20.1681 27.7094 20.0819 27.7094 19.9956C27.7094 19.9094 27.7094 19.8231 27.7094 19.7369C27.7094 19.6619 27.7106 19.5869 27.7131 19.5119C27.7175 19.3194 27.7251 19.1281 27.7358 18.9369C27.739 18.8669 27.7427 18.7963 27.7477 18.7263C27.7547 18.6156 27.7623 18.5044 27.7711 18.3944C27.7761 18.3319 27.7817 18.2694 27.7874 18.2031C27.7937 18.1288 27.8013 18.0544 27.8088 17.9794L27.8145 17.9206C27.8221 17.8469 27.8303 17.7731 27.8391 17.6994C27.8478 17.6219 27.8573 17.545 27.8668 17.4688C27.8743 17.41 27.8819 17.3519 27.8901 17.2938C27.8983 17.2356 27.9045 17.1894 27.9121 17.1375C27.9343 16.9817 27.9585 16.8267 27.9845 16.6725C27.9965 16.6019 28.0084 16.5319 28.021 16.4619C28.0206 16.4579 28.0206 16.4539 28.021 16.45C28.0475 16.3006 28.0758 16.1525 28.1066 16.0044C28.1136 15.9694 28.1205 15.935 28.1281 15.9006C28.1482 15.8025 28.1696 15.7044 28.191 15.6069C28.2393 15.3914 28.2916 15.1775 28.3478 14.965C28.3705 14.8769 28.3937 14.7888 28.4183 14.7006C28.4454 14.6019 28.4737 14.5025 28.5027 14.4044C28.5285 14.3156 28.5549 14.2269 28.5826 14.1388C28.587 14.1219 28.5921 14.1056 28.5978 14.0894C28.6261 13.9981 28.655 13.9075 28.6846 13.8169C28.7161 13.72 28.7476 13.6244 28.7816 13.5281C28.8156 13.4319 28.8477 13.3406 28.8823 13.2425L28.8861 13.2319C28.9075 13.1694 28.9296 13.1119 28.9529 13.0525C28.9761 12.9931 28.9907 12.95 29.0102 12.8987C29.0731 12.7381 29.1361 12.5781 29.199 12.42C29.2205 12.3675 29.2419 12.315 29.262 12.2631C29.2715 12.2388 29.2822 12.215 29.2928 12.1913C29.3187 12.1288 29.3458 12.0663 29.3735 12.0038C29.3785 11.9912 29.3835 11.9794 29.3892 11.9675C29.4188 11.9 29.4521 11.8331 29.4792 11.7663C29.5466 11.6187 29.6152 11.4719 29.6864 11.3288C29.7103 11.2794 29.7343 11.23 29.7588 11.1812C29.7833 11.1325 29.7997 11.0981 29.8218 11.0562C29.8438 11.0144 29.8564 10.9863 29.8746 10.9519C29.8929 10.9175 29.9124 10.8775 29.9326 10.84C29.9603 10.7863 29.9886 10.7325 30.017 10.6794C30.0541 10.6088 30.0919 10.5388 30.1296 10.4694C30.2316 10.2831 30.3366 10.099 30.4445 9.91687C30.4728 9.86874 30.5011 9.82126 30.5301 9.77374C30.5641 9.71625 30.5987 9.65939 30.634 9.60251C30.7127 9.47314 30.7939 9.34439 30.8764 9.2175C30.9192 9.15063 30.9633 9.08374 31.0073 9.01752C31.042 8.96439 31.0773 8.91187 31.1125 8.86002C31.3085 8.56833 31.5121 8.28397 31.7233 8.00687C31.756 7.96313 31.7894 7.92001 31.8227 7.87689C31.8435 7.84875 31.8643 7.82126 31.8857 7.79437L32.0066 7.64001C32.1526 7.45502 32.3025 7.27271 32.4561 7.09314C32.5084 7.03064 32.5607 6.96814 32.6135 6.91064C32.6664 6.85312 32.7048 6.80624 32.7514 6.75439C32.798 6.70251 32.8497 6.64377 32.9 6.58939C32.9359 6.54938 32.9724 6.50937 33.0096 6.47C33.326 6.12668 33.655 5.79523 33.9962 5.47562C35.5413 6.92831 36.8461 8.61356 37.8627 10.4694C35.3799 13.0295 33.995 16.4463 34 20C34 20.1619 34 20.3231 34.0088 20.4831C34.0822 22.6648 34.6807 24.7973 35.7542 26.7025C35.8604 26.8912 35.9709 27.0771 36.0859 27.26L55.1637 8.32251C53.11 7.05179 50.7553 6.34042 48.3367 6.26001C48.1755 6.25375 48.013 6.25125 47.8499 6.25125C46.2508 6.24936 44.6635 6.52301 43.1586 7.06C42.0868 5.1861 40.7872 3.44995 39.2889 1.89062C39.6813 1.70688 40.0801 1.53604 40.4852 1.37814L40.6526 1.31564C40.7924 1.26187 40.9335 1.21063 41.0751 1.16064C41.1337 1.13937 41.1929 1.11938 41.2521 1.09814C41.3112 1.07687 41.3698 1.0575 41.4296 1.03564C41.4894 1.01376 41.5555 0.993134 41.6216 0.973145C41.6997 0.94751 41.7784 0.923126 41.8577 0.898743L42.0567 0.836243C42.2091 0.79126 42.3623 0.747711 42.5164 0.705627C42.5598 0.693756 42.6026 0.681885 42.6461 0.671265C42.7015 0.65625 42.7575 0.641266 42.8135 0.627502C42.8696 0.61377 42.9395 0.595001 43.0024 0.579376C43.0817 0.559998 43.1611 0.540619 43.241 0.522522L43.3594 0.5L43.5017 0.46875C43.6793 0.429993 43.8581 0.393127 44.0381 0.359375C44.1194 0.34375 44.2006 0.328766 44.2825 0.314392L44.2913 0.314392C44.3719 0.299377 44.4531 0.285645 44.5343 0.272522C44.6716 0.25 44.8097 0.229187 44.9486 0.210022L45.0916 0.1875C45.3081 0.158142 45.5253 0.131897 45.7444 0.109375L45.8452 0.0993958C45.9044 0.0931396 45.963 0.0881348 46.0215 0.0831299C46.1084 0.0750122 46.1953 0.0675049 46.2822 0.0612488L46.3792 0.0543823C46.4358 0.0500183 46.4931 0.0456238 46.5504 0.042511L46.5699 0.042511L46.777 0.0306396C46.8721 0.0256348 46.9659 0.0212708 47.0635 0.0175171L47.2599 0.011261C47.3097 0.011261 47.3601 0.00811768 47.4099 0.00750732L47.5508 0.00750732C47.651 0.00750732 47.7511 0.00750732 47.8518 0.00750732L48.1125 0.00750732L48.2731 0.00750732L48.4286 0.011261C48.5432 0.011261 48.6578 0.0187683 48.7723 0.0237427C48.8171 0.0237427 48.8611 0.0274963 48.9058 0.0306396C48.9856 0.0343933 49.0656 0.0387573 49.1457 0.0437622L49.3201 0.0556335L49.3799 0.0599976C49.4322 0.0637512 49.4844 0.0675049 49.5367 0.0725098C49.589 0.0775146 49.6299 0.0800171 49.6765 0.0843811C49.7338 0.089386 49.7911 0.0943909 49.849 0.100647C49.8809 0.103119 49.913 0.106262 49.9454 0.110016C50.0814 0.123749 50.2167 0.138763 50.3521 0.15625C50.4031 0.161896 50.4547 0.168762 50.5063 0.175629C50.6323 0.191895 50.7538 0.208771 50.8772 0.227509L51.0623 0.256256C51.1252 0.265625 51.1882 0.275635 51.2462 0.286255L51.4294 0.318146C51.51 0.331879 51.5906 0.346893 51.6699 0.362518C51.7328 0.373138 51.7896 0.38501 51.8494 0.396881L51.9753 0.423126C52.0974 0.44812 52.2183 0.474396 52.3392 0.501892L52.5174 0.543121C52.5774 0.556885 52.6372 0.571259 52.6968 0.586243C52.8165 0.615021 52.9355 0.645416 53.0538 0.677521L53.2308 0.725006L53.4077 0.774384C53.5254 0.808136 53.6432 0.842499 53.7596 0.878143L53.9611 0.940643L54.162 1.00314L54.3616 1.0694C54.4944 1.11438 54.6266 1.16125 54.7582 1.20877L54.9547 1.28125C55.0089 1.30127 55.063 1.32208 55.1171 1.34375C55.2015 1.375 55.2846 1.40625 55.369 1.44125L55.5409 1.51126L55.7335 1.59125C55.7965 1.61813 55.8594 1.64563 55.9224 1.67377C55.9854 1.70187 56.0483 1.72876 56.1113 1.75751L56.3002 1.84375C56.3632 1.8725 56.4261 1.90189 56.4891 1.93188C56.5709 1.97 56.6522 2.00876 56.7327 2.04877L56.8631 2.11127C56.926 2.14188 56.989 2.17377 57.052 2.20502C57.1779 2.26752 57.2975 2.33002 57.4197 2.39752L57.5796 2.48438C57.6898 2.54688 57.7987 2.60501 57.9064 2.66751L58.0323 2.73938C58.1885 2.83002 58.3433 2.92252 58.4963 3.01813L58.6097 3.08875C58.645 3.11063 58.6802 3.13251 58.7148 3.155C58.7778 3.19687 58.8458 3.23877 58.9106 3.28C58.9566 3.30939 59.002 3.33875 59.0466 3.36938C59.0914 3.39999 59.1323 3.42627 59.1725 3.45563C59.5239 3.69229 59.8668 3.94022 60.2014 4.19937C60.2423 4.23001 60.2832 4.26187 60.3235 4.29376C60.5036 4.4346 60.681 4.57855 60.8556 4.72562L61.0319 4.875C61.0948 4.92874 61.1578 4.98251 61.2208 5.03751C61.2598 5.07126 61.2982 5.10562 61.3366 5.14062C61.4203 5.21439 61.5028 5.29001 61.5847 5.36624C61.6344 5.4119 61.6841 5.45813 61.7333 5.505C61.9813 5.73834 62.2229 5.97812 62.458 6.22437C62.5052 6.27313 62.5518 6.32251 62.5978 6.37189C62.6746 6.45312 62.7507 6.535 62.8251 6.61813C62.8603 6.65625 62.895 6.69437 62.929 6.73312C62.9844 6.79562 63.0385 6.85812 63.0927 6.92062C63.1468 6.98312 63.1909 7.03375 63.2394 7.09064C63.3871 7.26355 63.5321 7.43958 63.6744 7.61874C63.7065 7.65875 63.7374 7.69937 63.7695 7.73999C63.9005 7.90668 64.0281 8.0748 64.1523 8.24438L45.7816 26.4744L40.538 31.6794C42.5917 32.9502 44.9464 33.6616 47.3651 33.7419C47.5263 33.7481 47.6888 33.7506 47.8518 33.7506C55.5018 33.7506 61.7037 27.5944 61.7037 20.0006C61.7037 19.8387 61.7037 19.6775 61.6949 19.5175L64.5282 16.705L67.1185 14.1331C67.1544 14.2487 67.189 14.3656 67.223 14.4825C67.2394 14.5406 67.2564 14.5994 67.2728 14.6581C67.2891 14.7169 67.3049 14.775 67.3206 14.8337C67.3525 14.9513 67.3832 15.0694 67.4125 15.1881C67.4277 15.2477 67.4421 15.3071 67.456 15.3662L67.4976 15.5431C67.5253 15.6631 67.5517 15.7831 67.5768 15.9044L67.6033 16.0294C67.6153 16.0887 67.6273 16.1481 67.6379 16.2075C67.6537 16.2863 67.6688 16.3662 67.6826 16.4463C67.694 16.5067 67.7047 16.5673 67.7147 16.6281C67.7255 16.6906 67.7355 16.7531 67.745 16.8106C67.7544 16.8681 67.7645 16.9356 67.7739 16.9944C67.7928 17.1169 67.8102 17.2396 67.8262 17.3625C67.8331 17.4138 67.84 17.465 67.8457 17.5156C67.8633 17.65 67.8785 17.7844 67.8923 17.9194C67.8961 17.951 67.8992 17.9829 67.9017 18.015C67.908 18.0725 67.9131 18.1294 67.9181 18.1862C67.9225 18.2325 67.9269 18.2787 67.9301 18.325C67.9332 18.3712 67.9389 18.4287 67.9427 18.4806C67.9427 18.5006 67.9458 18.52 67.9471 18.54C67.9515 18.5975 67.9553 18.6556 67.959 18.7131C67.9641 18.7927 67.9685 18.8721 67.9723 18.9513C67.9723 18.9956 67.9773 19.0394 67.9792 19.0837C67.9843 19.1975 67.9886 19.3112 67.9918 19.425L67.9955 19.5794C67.9955 19.6325 67.9955 19.6856 67.9955 19.7387C67.9985 19.8267 68 19.9138 68 20Z" fill="#71A894" fill-opacity="1.000000" fill-rule="nonzero"/>
		<path id="Vector" d="M34 5.47681C33.6592 5.79681 33.3303 6.12827 33.0134 6.47119C32.9762 6.51056 32.9397 6.55057 32.9038 6.59058C32.8535 6.64496 32.8037 6.69995 32.7552 6.75555C32.7067 6.81119 32.6627 6.85931 32.6173 6.9118C32.572 6.96432 32.5122 7.03308 32.4599 7.09433C32.3063 7.2735 32.1564 7.45578 32.0104 7.6412L31.8895 7.79556C31.8674 7.82245 31.8467 7.84995 31.8265 7.87808C31.7932 7.9212 31.7598 7.96432 31.7271 8.00806C31.5172 8.28683 31.3136 8.5712 31.1163 8.86121C31.0811 8.91306 31.0458 8.96558 31.0112 9.01871C30.9671 9.08493 30.923 9.15182 30.8802 9.21869C30.7977 9.34369 30.7165 9.4743 30.6378 9.6037C30.6025 9.66058 30.5679 9.71744 30.5339 9.77493C30.5049 9.82245 30.4766 9.86993 30.4482 9.91806C30.3408 10.1002 30.2358 10.2843 30.1334 10.4706C28.8426 9.134 27.2922 8.07095 25.576 7.34555C23.8599 6.62015 22.0134 6.24744 20.1481 6.24994C12.4982 6.24994 6.29633 12.4062 6.29633 19.9999C6.29633 27.5937 12.4982 33.7499 20.1481 33.7499C21.7473 33.7518 23.3347 33.4782 24.8395 32.9412C25.9118 34.8149 27.2121 36.5506 28.7111 38.1093C26.0322 39.3586 23.108 40.0042 20.1481 39.9999C9.02069 39.9999 0 31.0456 0 19.9999C0 8.95432 9.02069 -6.10352e-05 20.1481 -6.10352e-05C25.3018 -0.00314331 30.2599 1.95728 34 5.47681Z" fill="#303031" fill-opacity="1.000000" fill-rule="nonzero"/>
	</g>
</svg>
